#!OML:ASF F:\VICON\USERDATA\INSTALL\Justin_Nancy\Justin_Nancy.ASF
:FULLY-SPECIFIED
:DEGREES
79
root 12.2368 17.5074 -14.4307 0.388821 5.58322 2.0633
lowerback 6.0296 -2.33143 -4.06863
upperback -0.518601 -3.30999 2.57991
thorax -3.53569 -1.54587 5.25909
lowerneck -16.2641 -3.77243 -10.0931
upperneck 25.1617 -3.8093 4.7478
head 11.1444 -2.12442 2.88494
rclavicle -1.26725e-015 1.11319e-014
rhumerus -38.4126 -20.9295 -73.1952
rradius 23.4981
rwrist 15.0908
rhand -13.4952 12.3114
rfingers 7.12502
rthumb 12.6158 -17.2876
lclavicle -1.26725e-015 1.11319e-014
lhumerus -25.5336 11.9769 85.0011
lradius 26.5733
lwrist -11.7577
lhand -18.6223 22.0142
lfingers 7.12502
lthumb 7.66975 51.8551
rfemur -21.7707 -0.0229875 22.4918
rtibia 24.6273
rfoot 0.0432864 -4.30841
rtoes 0.69537
lfemur 4.47001 -1.98256 -24.2225
ltibia 39.0574
lfoot 10.1806 -13.9392
ltoes -18.6213
80
root 12.2311 17.5168 -14.2692 0.192665 5.7372 1.74697
lowerback 6.08433 -2.36421 -3.81525
upperback -0.472866 -3.33187 2.70837
thorax -3.52269 -1.56186 5.2535
lowerneck -16.0402 -3.74362 -10.3083
upperneck 24.9118 -3.78945 4.97782
head 11.0142 -2.10644 3.00695
rclavicle 3.55328e-014 -2.3059e-014
rhumerus -38.0883 -20.3512 -73.5189
rradius 23.6313
rwrist 14.4996
rhand -13.1476 12.3928
rfingers 7.12502
rthumb 12.9509 -17.1853
lclavicle 3.55328e-014 -2.3059e-014
lhumerus -25.7135 12.3763 84.9796
lradius 26.0354
lwrist -12.2408
lhand -18.6467 22.3127
lfingers 7.12502
lthumb 7.64619 52.1544
rfemur -20.8617 -0.315683 22.9548
rtibia 24.4313
rfoot -0.504471 -4.33651
rtoes -0.468678
lfemur 3.47611 -1.76111 -23.5346
ltibia 41.3873
lfoot 12.4639 -15.0949
ltoes -17.727
81
root 12.2211 17.5369 -14.1103 0.0982723 5.78819 1.20467
lowerback 5.95185 -2.3957 -3.41359
upperback -0.389336 -3.33304 2.93904
thorax -3.36988 -1.57432 5.25722
lowerneck -15.9267 -3.65769 -10.3429
upperneck 24.6184 -3.65508 4.95222
head 10.8709 -2.04764 3.01902
rclavicle 2.53202e-014 1.59028e-015
rhumerus -37.5319 -19.1167 -74.2817
rradius 24.1416
rwrist 12.9614
rhand -12.3972 10.9609
rfingers 7.12502
rthumb 13.6742 -18.5699
lclavicle 2.53202e-014 1.59028e-015
lhumerus -25.7569 12.9079 84.9853
lradius 25.2336
lwrist -13.0145
lhand -19.3305 20.9618
lfingers 7.12502
lthumb 6.98609 50.8265
rfemur -20.0033 -0.298684 23.6787
rtibia 23.9921
rfoot -0.424611 -4.29746
rtoes 0.382085
lfemur 2.13172 -1.49441 -22.6031
ltibia 43.7004
lfoot 14.5016 -16.3526
ltoes -16.6682
82
root 12.2098 17.5645 -13.9507 -0.0623561 5.60169 0.539541
lowerback 5.9317 -2.24718 -2.80914
upperback -0.273013 -3.08583 3.1017
thorax -3.28826 -1.46451 5.06117
lowerneck -15.9284 -3.73303 -10.2757
upperneck 24.3948 -3.78262 4.9834
head 10.7983 -2.09148 2.9971
rclavicle 2.3382e-014 -1.19271e-014
rhumerus -37.2437 -18.6983 -74.6244
rradius 24.2775
rwrist 12.5869
rhand -12.7605 11.8602
rfingers 7.12502
rthumb 13.324 -17.6939
lclavicle 2.3382e-014 -1.19271e-014
lhumerus -25.8301 12.7355 85.0987
lradius 24.7174
lwrist -13.482
lhand -17.8265 22.3036
lfingers 7.12502
lthumb 8.43775 52.1151
rfemur -18.9589 -0.0813202 24.5578
rtibia 23.3327
rfoot -1.01941 -4.46389
rtoes -2.38805
lfemur 0.578657 -1.03492 -21.5529
ltibia 45.9301
lfoot 17.1246 -16.821
ltoes -13.735
83
root 12.2007 17.6017 -13.7891 -0.333036 5.52629 0.0473264
lowerback 6.12616 -2.16091 -2.37557
upperback -0.207874 -2.9375 3.23238
thorax -3.36034 -1.39601 4.94903
lowerneck -15.917 -3.83983 -10.404
upperneck 24.4269 -3.94359 5.14193
head 10.8287 -2.15853 3.05402
rclavicle 1.06847e-014 -1.35174e-014
rhumerus -36.9412 -18.1473 -74.9536
rradius 24.314
rwrist 12.2686
rhand -13.1877 12.7962
rfingers 7.12502
rthumb 12.9122 -16.7843
lclavicle 1.06847e-014 -1.35174e-014
lhumerus -26.066 12.4737 85.2451
lradius 24.4368
lwrist -13.3657
lhand -14.445 24.754
lfingers 7.12502
lthumb 11.7 54.4073
rfemur -17.727 -0.0800157 25.1694
rtibia 22.6163
rfoot -1.34608 -4.46765
rtoes 1.79584
lfemur -0.759278 -0.711751 -20.7536
ltibia 48.0791
lfoot 19.0963 -17.0471
ltoes -11.5615
84
root 12.196 17.6238 -13.632 -0.531876 5.32472 -0.411967
lowerback 6.31251 -2.05653 -1.99093
upperback -0.179149 -2.7654 3.38976
thorax -3.46299 -1.31351 4.89068
lowerneck -16.1228 -3.93246 -10.4427
upperneck 24.6349 -4.04439 5.13386
head 10.9567 -2.20967 3.04434
rclavicle 2.5519e-014 -7.95139e-015
rhumerus -36.5559 -17.487 -75.2673
rradius 24.3252
rwrist 12.2356
rhand -13.6874 13.7879
rfingers 7.12502
rthumb 12.4305 -15.8225
lclavicle 2.5519e-014 -7.95139e-015
lhumerus -26.156 12.2655 85.4368
lradius 23.8305
lwrist -13.2625
lhand -13.5181 24.7958
lfingers 7.12502
lthumb 12.5937 54.3962
rfemur -16.5877 -0.055946 25.7407
rtibia 21.8903
rfoot -2.04205 -4.57529
rtoes 8.34554
lfemur -1.9294 -0.228443 -20.009
ltibia 50.1692
lfoot 19.6178 -17.1523
ltoes -9.68452
85
root 12.1955 17.6268 -13.4819 -0.698129 5.03806 -0.741299
lowerback 6.439 -1.84714 -1.63134
upperback -0.0644644 -2.45921 3.42421
thorax -3.45831 -1.16832 4.69916
lowerneck -16.6457 -4.04498 -10.4164
upperneck 24.9364 -4.19505 5.25966
head 11.1876 -2.2578 3.06458
rclavicle -4.62174e-015 -2.06736e-014
rhumerus -36.1322 -17.2653 -75.5764
rradius 24.5635
rwrist 12.4607
rhand -13.9637 14.856
rfingers 7.12502
rthumb 12.1641 -14.7704
lclavicle -4.62174e-015 -2.06736e-014
lhumerus -25.9262 12.1313 85.5702
lradius 23.0571
lwrist -13.4443
lhand -13.9128 24.9826
lfingers 7.12502
lthumb 12.2132 54.606
rfemur -15.5379 -0.228914 26.2458
rtibia 21.2383
rfoot -1.55298 -3.8443
rtoes 1.71392
lfemur -3.13231 0.411877 -19.4129
ltibia 52.2121
lfoot 19.1241 -17.1024
ltoes -9.27683
86
root 12.1909 17.6368 -13.335 -0.89141 4.83564 -1.07488
lowerback 6.55261 -1.68633 -1.33621
upperback -0.0386078 -2.22025 3.47136
thorax -3.52652 -1.05277 4.56454
lowerneck -16.4305 -4.03992 -10.283
upperneck 24.8641 -4.26489 5.31891
head 11.1213 -2.27124 3.05448
rclavicle 1.6201e-014 -1.90833e-014
rhumerus -35.8272 -17.0333 -75.7974
rradius 24.6289
rwrist 12.6092
rhand -14.3287 15.4508
rfingers 7.12502
rthumb 11.8122 -14.1961
lclavicle 1.6201e-014 -1.90833e-014
lhumerus -26.0729 11.8882 85.5956
lradius 22.6077
lwrist -13.6928
lhand -13.4991 24.8944
lfingers 7.12502
lthumb 12.612 54.4937
rfemur -14.5427 -0.334818 26.7366
rtibia 20.708
rfoot -1.53674 -3.56754
rtoes -1.45129
lfemur -4.2371 0.825507 -18.841
ltibia 54.2004
lfoot 18.1679 -16.5441
ltoes -9.71217
87
root 12.1877 17.6582 -13.1877 -1.09532 4.63963 -1.31279
lowerback 6.73856 -1.57177 -1.12047
upperback -0.198584 -2.04522 3.48751
thorax -3.81949 -0.961883 4.45578
lowerneck -15.4348 -3.94287 -10.2019
upperneck 24.5783 -4.28563 5.44138
head 10.8206 -2.26861 3.0874
rclavicle 1.6027e-014 1.59028e-014
rhumerus -35.8375 -16.3757 -76.0427
rradius 24.6435
rwrist 12.4588
rhand -14.6448 15.6124
rfingers 7.12502
rthumb 11.5074 -14.0517
lclavicle 1.6027e-014 1.59028e-014
lhumerus -26.5954 11.9271 85.4511
lradius 22.1512
lwrist -14.2923
lhand -14.0141 21.6923
lfingers 7.12502
lthumb 12.1155 51.3215
rfemur -13.5281 -0.191241 27.0689
rtibia 20.2734
rfoot -1.82058 -3.64751
rtoes -0.9034
lfemur -5.2046 1.08888 -18.4549
ltibia 56.0953
lfoot 16.8086 -15.3594
ltoes -9.71485
88
root 12.1821 17.6737 -13.0397 -1.33517 4.46688 -1.48209
lowerback 6.99996 -1.50132 -1.04193
upperback -0.216992 -1.94006 3.54168
thorax -3.99534 -0.907141 4.46914
lowerneck -15.0296 -3.95098 -10.2864
upperneck 24.3281 -4.32558 5.49477
head 10.6564 -2.29087 3.11502
rclavicle -2.18663e-015 1.11319e-014
rhumerus -35.5842 -15.8117 -76.2986
rradius 24.7847
rwrist 12.7134
rhand -14.6395 15.5128
rfingers 7.12502
rthumb 11.5125 -14.1511
lclavicle -2.18663e-015 1.11319e-014
lhumerus -26.8941 12.4834 85.2457
lradius 21.7569
lwrist -15.2105
lhand -13.5525 24.0336
lfingers 7.12502
lthumb 12.5606 53.636
rfemur -12.4609 0.0249638 27.3231
rtibia 19.9046
rfoot -2.35974 -3.81232
rtoes -0.382932
lfemur -6.37732 1.51725 -18.11
ltibia 57.8909
lfoot 15.1893 -13.985
ltoes -11.0883
89
root 12.1752 17.6721 -12.9037 -1.46418 4.09252 -1.88714
lowerback 7.23262 -1.37746 -0.665897
upperback -0.124223 -1.73902 3.62661
thorax -4.05508 -0.813835 4.33112
lowerneck -15.4336 -4.02944 -10.4738
upperneck 24.5103 -4.40147 5.69604
head 10.8192 -2.31581 3.20873
rclavicle -2.27111e-014 2.78299e-014
rhumerus -35.0108 -15.6904 -76.5399
rradius 24.9241
rwrist 13.3825
rhand -14.6749 15.901
rfingers 7.12502
rthumb 11.4783 -13.7648
lclavicle -2.27111e-014 2.78299e-014
lhumerus -26.9422 13.2864 84.9915
lradius 21.5484
lwrist -16.0958
lhand -13.2692 23.1459
lfingers 7.12502
lthumb 12.8337 52.7314
rfemur -11.6536 0.366474 27.885
rtibia 19.5636
rfoot -2.67415 -3.97485
rtoes -0.0585921
lfemur -7.70821 2.25943 -17.4495
ltibia 59.589
lfoot 12.4213 -13.2456
ltoes -17.8925
90
root 12.1734 17.6652 -12.7682 -1.47157 3.55841 -2.05421
lowerback 7.16544 -1.14148 -0.499744
upperback -0.0422722 -1.41366 3.61456
thorax -3.96188 -0.657708 4.18646
lowerneck -15.5422 -4.07907 -10.5139
upperneck 24.6627 -4.50103 5.86909
head 10.9111 -2.34478 3.26655
rclavicle -9.93923e-015 -1.11319e-014
rhumerus -34.4816 -15.5725 -76.7843
rradius 24.9984
rwrist 13.7303
rhand -14.6962 16.0609
rfingers 7.12502
rthumb 11.4578 -13.606
lclavicle -9.93923e-015 -1.11319e-014
lhumerus -27.0882 13.445 84.9364
lradius 21.6308
lwrist -16.4213
lhand -12.8136 23.5286
lfingers 7.12502
lthumb 13.2728 53.0859
rfemur -11.0037 0.921217 28.1732
rtibia 19.2849
rfoot -2.88632 -4.09747
rtoes -0.273641
lfemur -9.02719 2.99839 -17.1393
ltibia 61.1315
lfoot 10.8655 -11.7858
ltoes -17.3941
91
root 12.1752 17.6815 -12.6195 -1.62632 3.38481 -1.98218
lowerback 7.15918 -0.983973 -0.503245
upperback 0.0656668 -1.21225 3.47675
thorax -3.86395 -0.561154 4.02062
lowerneck -15.5822 -4.08731 -10.2508
upperneck 24.7707 -4.58124 5.85738
head 10.9581 -2.35846 3.20787
rclavicle -4.09993e-015 -1.51076e-014
rhumerus -34.0497 -15.4659 -77.1017
rradius 25.3
rwrist 13.5727
rhand -14.162 14.8164
rfingers 7.12502
rthumb 11.9729 -14.8212
lclavicle -4.09993e-015 -1.51076e-014
lhumerus -27.2893 13.466 84.8256
lradius 21.6954
lwrist -16.815
lhand -12.7407 25.1299
lfingers 7.12502
lthumb 13.3432 54.6827
rfemur -10.0717 0.858546 28.1702
rtibia 18.962
rfoot -3.34498 -4.09875
rtoes -0.450773
lfemur -10.1981 3.55348 -17.1164
ltibia 62.276
lfoot 9.10354 -10.4015
ltoes -16.9501
92
root 12.171 17.6965 -12.474 -1.75533 3.51271 -1.95867
lowerback 7.26566 -0.966318 -0.550727
upperback 0.0890865 -1.19461 3.40478
thorax -3.90117 -0.551816 3.9728
lowerneck -15.7115 -4.07578 -9.98463
upperneck 24.9577 -4.60431 5.75861
head 11.045 -2.35568 3.12528
rclavicle 1.38901e-014 -1.43125e-014
rhumerus -33.6298 -15.3382 -77.4006
rradius 25.2702
rwrist 12.7088
rhand -14.3118 14.0442
rfingers 7.12502
rthumb 11.8285 -15.6018
lclavicle 1.38901e-014 -1.43125e-014
lhumerus -27.6236 13.917 84.577
lradius 21.6035
lwrist -17.2796
lhand -13.6579 25.1623
lfingers 7.12502
lthumb 12.459 54.771
rfemur -9.24834 0.929044 28.2196
rtibia 18.7081
rfoot -3.79323 -4.53812
rtoes 1.30319
lfemur -11.4245 3.74018 -17.0406
ltibia 63.2207
lfoot 9.20056 -9.08127
ltoes -12.801
93
root 12.164 17.7095 -12.3303 -1.87252 3.60783 -2.00585
lowerback 7.29472 -0.974936 -0.636635
upperback 0.0811017 -1.21099 3.44971
thorax -3.92196 -0.557567 4.07137
lowerneck -15.6732 -4.11984 -10.1416
upperneck 25.1908 -4.66208 5.85093
head 11.1375 -2.38934 3.18188
rclavicle 4.02539e-015 1.35174e-014
rhumerus -33.114 -15.4611 -77.3764
rradius 25.0081
rwrist 13.0399
rhand -14.6256 14.4383
rfingers 7.12502
rthumb 11.5258 -15.2248
lclavicle 4.02539e-015 1.35174e-014
lhumerus -28.1261 14.4465 84.4025
lradius 21.7073
lwrist -17.4073
lhand -13.9248 24.6249
lfingers 7.12502
lthumb 12.2016 54.249
rfemur -8.47652 1.05436 28.3695
rtibia 18.4207
rfoot -3.98704 -4.92723
rtoes 2.16501
lfemur -12.4797 3.75775 -16.9215
ltibia 63.9722
lfoot 7.35349 -7.75455
ltoes -14.9004
